<?xml version="1.0" encoding="utf-8"?>
<!-- Generator: Adobe Illustrator 24.2.1, SVG Export Plug-In . SVG Version: 6.00 Build 0)  -->
<svg version="1.1" id="レイヤー_1" xmlns="http://www.w3.org/2000/svg" xmlns:xlink="http://www.w3.org/1999/xlink" x="0px"
	 y="0px" viewBox="0 0 600 145" style="enable-background:new 0 0 600 145;" xml:space="preserve">
<style type="text/css">
	.st0{fill:#040000;}
	.st1{fill:#E7F1F2;}
	.st2{fill:#F9C023;}
	.st3{fill:#FFFFFF;}
</style>
<g>
	<path class="st0" d="M184.71,40.4c0-0.92,0.74-1.75,1.75-1.75h21.14c10.99,0,19.48,7.39,19.48,17.08c0,7.11-5.82,12.65-10.16,14.68
		c4.89,1.57,12,6.56,12,15.05c0,10.34-8.86,17.82-20.13,17.82h-22.35c-1.02,0-1.75-0.83-1.75-1.75V40.4z M206.5,65.79
		c4.71,0,7.94-3.69,7.94-8.31s-3.23-7.85-7.94-7.85h-9.88v16.16H206.5z M207.79,92.38c4.62,0,8.31-3.6,8.31-8.4
		c0-4.62-4.62-8.03-9.42-8.03h-10.06v16.44H207.79z"/>
	<path class="st0" d="M254.88,65.42c9.51,0,17.27,7.2,17.27,17.17c0,0.65-0.09,1.85-0.18,2.49c-0.09,0.92-0.92,1.57-1.75,1.57
		h-23.64c0.28,3.78,3.51,8.03,8.86,8.03c2.86,0,5.54-1.11,7.2-2.31c0.92-0.55,1.75-0.74,2.4,0l3.79,4.34
		c0.65,0.65,0.83,1.66-0.09,2.4c-3.05,2.86-7.76,5.08-13.76,5.08c-11.08,0-18.93-8.77-18.93-19.39
		C236.04,74.38,243.89,65.42,254.88,65.42z M261.34,80.2c-0.28-3.42-3.23-6.28-6.74-6.28c-3.69,0-6.74,2.77-7.2,6.28H261.34z"/>
	<path class="st0" d="M295.97,65.42c9.51,0,17.27,7.2,17.27,17.17c0,0.65-0.09,1.85-0.18,2.49c-0.09,0.92-0.92,1.57-1.75,1.57
		h-23.64c0.28,3.78,3.51,8.03,8.86,8.03c2.86,0,5.54-1.11,7.2-2.31c0.92-0.55,1.75-0.74,2.4,0l3.79,4.34
		c0.65,0.65,0.83,1.66-0.09,2.4c-3.05,2.86-7.76,5.08-13.76,5.08c-11.08,0-18.93-8.77-18.93-19.39
		C277.13,74.38,284.98,65.42,295.97,65.42z M302.43,80.2c-0.28-3.42-3.23-6.28-6.74-6.28c-3.69,0-6.74,2.77-7.2,6.28H302.43z"/>
	<path class="st0" d="M320.99,68.1c0-1.02,0.83-1.75,1.75-1.75h3.51c0.83,0,1.39,0.46,1.66,1.2l1.29,3.6
		c1.29-1.85,4.71-5.72,10.43-5.72c4.34,0,8.22,1.38,7.11,3.69l-3.42,6c-0.46,0.83-1.38,1.2-2.12,0.83
		c-0.28-0.09-1.66-0.55-2.68-0.55c-3.69,0-5.91,2.49-6.56,3.79v22.34c0,1.29-0.83,1.75-2.12,1.75h-7.11c-0.92,0-1.75-0.83-1.75-1.75
		V68.1z"/>
	<path class="st0" d="M352.47,40.4c0-0.92,0.83-1.75,1.75-1.75h7.85c0.92,0,1.75,0.83,1.75,1.75v39.98l12.74-12.93
		c0.65-0.55,1.29-1.11,2.31-1.11h8.4c1.57,0,2.12,1.66,1.2,2.68l-13.76,14.03l16.44,17.64c0.92,1.02,0.37,2.59-1.2,2.59h-9.97
		c-0.55,0-1.29-0.37-1.57-0.74l-14.59-16.62v15.6c0,0.92-0.83,1.75-1.75,1.75h-7.85c-0.92,0-1.75-0.83-1.75-1.75V40.4z"/>
	<path class="st0" d="M413.69,65.42c9.51,0,17.27,7.2,17.27,17.17c0,0.65-0.09,1.85-0.18,2.49c-0.09,0.92-0.92,1.57-1.75,1.57
		h-23.64c0.28,3.78,3.51,8.03,8.86,8.03c2.86,0,5.54-1.11,7.2-2.31c0.92-0.55,1.75-0.74,2.4,0l3.79,4.34
		c0.65,0.65,0.83,1.66-0.09,2.4c-3.05,2.86-7.76,5.08-13.76,5.08c-11.08,0-18.93-8.77-18.93-19.39
		C394.85,74.38,402.7,65.42,413.69,65.42z M420.15,80.2c-0.28-3.42-3.23-6.28-6.74-6.28c-3.69,0-6.74,2.77-7.2,6.28H420.15z"/>
	<path class="st0" d="M454.77,65.42c9.51,0,17.27,7.2,17.27,17.17c0,0.65-0.09,1.85-0.18,2.49c-0.09,0.92-0.92,1.57-1.75,1.57
		h-23.64c0.28,3.78,3.51,8.03,8.86,8.03c2.86,0,5.54-1.11,7.2-2.31c0.92-0.55,1.75-0.74,2.4,0l3.79,4.34
		c0.65,0.65,0.83,1.66-0.09,2.4c-3.05,2.86-7.76,5.08-13.76,5.08c-11.08,0-18.93-8.77-18.93-19.39
		C435.94,74.38,443.79,65.42,454.77,65.42z M461.24,80.2c-0.28-3.42-3.23-6.28-6.74-6.28c-3.69,0-6.74,2.77-7.2,6.28H461.24z"/>
	<path class="st0" d="M491.15,129.23c0,1.11-0.55,1.75-2.22,1.75h-7.39c-0.92,0-1.75-0.83-1.75-1.75V68.1
		c0-1.02,0.83-1.75,1.75-1.75h3.6c0.65,0,1.29,0.37,1.57,1.11l1.2,3.05c1.38-1.85,5.91-5.08,11.91-5.08
		c10.16,0,17.82,8.77,17.82,19.39c0,10.9-8.31,19.39-18.28,19.39c-3.6,0-6.93-1.29-8.22-2.03V129.23z M497.89,94.23
		c5.17,0,8.96-4.25,8.96-9.42s-3.51-9.42-8.59-9.42c-4.71,0-7.02,3.69-7.57,5.63v11.08C490.69,92.11,493.28,94.23,497.89,94.23z"/>
	<path class="st0" d="M542.03,65.42c9.51,0,17.27,7.2,17.27,17.17c0,0.65-0.09,1.85-0.18,2.49c-0.09,0.92-0.92,1.57-1.75,1.57
		h-23.64c0.28,3.78,3.51,8.03,8.86,8.03c2.86,0,5.54-1.11,7.2-2.31c0.92-0.55,1.75-0.74,2.4,0l3.79,4.34
		c0.65,0.65,0.83,1.66-0.09,2.4c-3.05,2.86-7.76,5.08-13.76,5.08c-11.08,0-18.93-8.77-18.93-19.39
		C523.19,74.38,531.04,65.42,542.03,65.42z M548.49,80.2c-0.28-3.42-3.23-6.28-6.74-6.28c-3.69,0-6.74,2.77-7.2,6.28H548.49z"/>
	<path class="st0" d="M567.05,68.1c0-1.02,0.83-1.75,1.75-1.75h3.51c0.83,0,1.38,0.46,1.66,1.2l1.29,3.6
		c1.29-1.85,4.71-5.72,10.43-5.72c4.34,0,8.22,1.38,7.11,3.69l-3.42,6c-0.46,0.83-1.39,1.2-2.12,0.83
		c-0.28-0.09-1.66-0.55-2.68-0.55c-3.69,0-5.91,2.49-6.56,3.79v22.34c0,1.29-0.83,1.75-2.12,1.75h-7.11c-0.92,0-1.75-0.83-1.75-1.75
		V68.1z"/>
</g>
<path class="st1" d="M4.22,65.39h109.46V18.31c-9.7-3.33-11.65-14.44-24.67-14.44c-15.31,0-15.31,15.38-30.62,15.38
	c-15.31,0-15.31-15.38-30.62-15.38c-12.5,0-14.79,10.26-23.55,14.02V65.39z"/>
<path class="st2" d="M96.58,140.7H20.89C11.56,140.7,4,133.14,4,123.81V53.13h109.46v70.68C113.46,133.14,105.9,140.7,96.58,140.7z"
	/>
<path class="st2" d="M4,32.89c9.12,0,9.12,9.16,18.24,9.16c9.12,0,9.12-9.16,18.24-9.16c9.12,0,9.12,9.16,18.24,9.16
	c9.12,0,9.12-9.16,18.25-9.16c9.12,0,9.12,9.16,18.25,9.16s9.12-9.16,18.25-9.16v36.65H4V32.89z"/>
<path class="st2" d="M112.59,115.77c-18.85,0-34.18-15.33-34.18-34.18c0-18.85,15.33-34.18,34.18-34.18s34.18,15.33,34.18,34.18
	C146.77,100.43,131.44,115.77,112.59,115.77z M112.59,58.85c-12.54,0-22.74,10.2-22.74,22.74s10.2,22.74,22.74,22.74
	s22.74-10.2,22.74-22.74S125.13,58.85,112.59,58.85z"/>
<g>
	<circle class="st3" cx="38.78" cy="79.7" r="9.34"/>
	<circle class="st0" cx="38.78" cy="79.7" r="4.94"/>
	<circle class="st3" cx="82.72" cy="79.7" r="9.34"/>
	<circle class="st0" cx="82.72" cy="79.7" r="4.94"/>
	<polygon class="st3" points="68.65,96.18 60.75,106.28 52.85,96.18 60.75,86.08 	"/>
</g>
</svg>
